/vscmnt/brussel_pixiu_data/_data_brussel/112/vsc11236/PredSimResults/SUBJ06opt3D/trackIG/worker_03.mot
version=1
nRows=5
nColumns=50
inDegrees=yes
endheader
                time	         pelvis_tilt	         pelvis_list	     pelvis_rotation	           pelvis_tx	           pelvis_ty	           pelvis_tz	       hip_flexion_r	     hip_adduction_r	      hip_rotation_r	        knee_angle_r	       ankle_angle_r	         mtp_angle_r	       hip_flexion_l	     hip_adduction_l	      hip_rotation_l	        knee_angle_l	       ankle_angle_l	         mtp_angle_l	    lumbar_extension	      lumbar_bending	     lumbar_rotation	 ercspn_r/activation	 intobl_r/activation	 extobl_r/activation	    abd_r/activation	    add_r/activation	hamstrings_r/activation	bifemsh_r/activation	glut_max_r/activation	iliopsoas_r/activation	rect_fem_r/activation	  vasti_r/activation	gastroc_r/activation	 soleus_r/activation	tib_ant_r/activation	 ercspn_l/activation	 intobl_l/activation	 extobl_l/activation	    abd_l/activation	    add_l/activation	hamstrings_l/activation	bifemsh_l/activation	glut_max_l/activation	iliopsoas_l/activation	rect_fem_l/activation	  vasti_l/activation	gastroc_l/activation	 soleus_l/activation	tib_ant_l/activation	
          0.00000000	         -0.83166872	         -4.69288802	          8.25711371	          0.00000000	          0.95250163	         -0.02071079	         20.67950629	          1.76157180	        -17.03208764	         -3.74053593	         -2.75837157	          0.19515345	        -10.84627289	         -6.58613659	        -11.14127050	        -12.10346123	          9.26324736	         28.71354228	         -6.59535397	          2.72663990	         -6.49121416	          0.19182686	          0.20823173	          0.00999999	          0.00999999	          0.21304209	          0.01520260	          0.00999999	          0.00999999	          0.09566886	          0.04755428	          0.12373545	          0.01244199	          0.00999999	          0.42701413	          0.07427073	          0.00999999	          0.00999999	          0.09879734	          0.00999999	          0.00999999	          0.15982350	          0.02182360	          0.12435502	          0.03709728	          0.00999999	          0.19480301	          0.32655139	          0.01701079	
          0.01465204	         -0.92105460	         -4.53122063	          8.21309959	          0.01498714	          0.95093115	         -0.01918984	         20.14455084	          1.86594994	        -17.01246040	         -3.70996682	         -3.17215296	          0.21489993	        -11.36151664	         -6.66903313	        -11.71360230	        -12.68404936	          8.53796620	         30.23154590	         -6.20702506	          2.93664896	         -6.83509307	          0.18632614	          0.19335051	          0.00999999	          0.00999999	          0.17122808	          0.02388023	          0.00999999	          0.00999999	          0.07689183	          0.03822075	          0.14761144	          0.00999999	          0.00999999	          0.44426021	          0.07841981	          0.00999999	          0.00999999	          0.07940628	          0.00999999	          0.00999999	          0.12845476	          0.02396411	          0.09994772	          0.02981616	          0.00999999	          0.18416587	          0.31176596	          0.01367206	
          0.02930408	         -0.99621304	         -4.37458422	          8.12582238	          0.03047552	          0.94952006	         -0.01765865	         19.44261564	          1.92808700	        -16.86710863	         -3.94099626	         -3.45611880	          0.18647029	        -11.84701950	         -6.77239493	        -12.29483682	        -13.39753225	          7.67684212	         31.77846643	         -5.78109853	          3.19208529	         -7.14465153	          0.14975571	          0.18000068	          0.00999999	          0.00999999	          0.13762096	          0.02942168	          0.00999999	          0.00999999	          0.06180019	          0.03071912	          0.13575707	          0.01244199	          0.01244199	          0.47591414	          0.09039380	          0.00999999	          0.00999999	          0.06382112	          0.00999999	          0.01007105	          0.10324281	          0.01926065	          0.08033087	          0.02396411	          0.01000000	          0.15979530	          0.29272444	          0.01098863	
          0.04395611	         -1.06064984	         -4.24472515	          7.98714825	          0.04623688	          0.94841238	         -0.01599455	         18.63928888	          2.02954879	        -16.87499852	         -4.07599741	         -3.77329879	          0.17619788	        -12.19762546	         -6.94165836	        -12.86813439	        -14.39624572	          6.66857099	         33.35257215	         -5.34294590	          3.49895414	         -7.41150548	          0.12036299	          0.14467175	          0.00999999	          0.02927851	          0.11060994	          0.04755738	          0.00999999	          0.01810439	          0.04967060	          0.02468984	          0.13076543	          0.00999999	          0.00999999	          0.50809957	          0.11831950	          0.00999999	          0.00999999	          0.05129488	          0.00999999	          0.00999999	          0.08870158	          0.01548034	          0.08298790	          0.01926064	          0.00999999	          0.12843210	          0.26783863	          0.00999999	
          0.05860815	         -1.11686683	         -4.15047215	          7.79981990	          0.06200009	          0.94785684	         -0.01414081	         17.83955471	          2.16674634	        -17.01649753	         -4.24878339	         -3.89786360	          0.15375060	        -12.29890388	         -7.21018086	        -13.42330293	        -15.83388649	          5.45136204	         34.95952111	         -4.91901383	          3.85054782	         -7.63413715	          0.11347452	          0.11627686	          0.00999999	          0.07202767	          0.08890041	          0.05239176	          0.00999999	          0.03085364	          0.03992169	          0.01984394	          0.11830113	          0.00999999	          0.00999999	          0.50495246	          0.15681633	          0.00999999	          0.00999999	          0.04122717	          0.02516758	          0.03852796	          0.07129203	          0.01244200	          0.06669980	          0.01548034	          0.00999999	          0.10322459	          0.24199124	          0.00999999	
